<?xml version="1.0" encoding="utf-8"?>
<!-- Generator: Adobe Illustrator 16.0.4, SVG Export Plug-In . SVG Version: 6.00 Build 0)  -->
<svg version="1.2" baseProfile="tiny" id="Layer_1" xmlns="http://www.w3.org/2000/svg" xmlns:xlink="http://www.w3.org/1999/xlink"
	 x="0px" y="0px" width="200px" height="150px" viewBox="0 0 200 150" xml:space="preserve">
<g>
	<g>
		<path fill="none" d="M101.492,20.5c19.664,0,39.329,0.053,58.992-0.066c2.5-0.015,3.07,0.566,3.063,3.066
			c-0.095,35.662-0.095,71.326,0,106.987c0.007,2.5-0.563,3.07-3.063,3.063c-39.328-0.092-78.657-0.092-117.984,0
			c-2.5,0.007-3.072-0.563-3.064-3.063c0.095-35.661,0.095-71.325,0-106.987c-0.008-2.5,0.562-3.081,3.064-3.066
			C62.164,20.554,81.828,20.5,101.492,20.5z M87.488,95.403c2.094-2.064,4.271-1.867,6.082-1.422
			c7.114,1.746,14.366,2.397,21.595,3.336c3.883,0.504,7.212,0.425,9.783-2.949c3.813-5.01,3.269-10.141,0.702-15.467
			c-1.805-3.747-5.066-4.132-8.451-3.69c-6.975,0.91-14.057-1.625-20.998,0.862c-1.469,0.525-3.304,0.091-4.964-0.002
			c-1.022-0.059-2.071-0.437-2.313-1.539c-0.31-1.398,0.662-2.3,1.846-2.553c5.018-1.074,8.354-5.236,13.102-6.911
			c4.051-1.428,4.861-4.705,2.982-8.545c-1.094-2.233-2.087-4.506-3.755-6.435c-2.788-3.226-5.821-4.439-10.113-2.762
			c-4.722,1.845-9.33,4.59-12.478,7.874c-5.989,6.253-13.06,6.109-20.356,6.352c-8.17,0.272-15.47,2.597-12.122,13.864
			c1.016,3.417,0.042,6.009-2.02,8.659c-2.98,3.832-2.942,8.387-0.459,12.064c2.271,3.359,3.301,6.694,3.67,10.557
			c0.422,4.416,3.1,6.766,7.507,7.119c2.874,0.231,5.485-0.59,8.225-1.494c6.154-2.029,12.724-6.09,18.897-1.143
			c9.043,7.246,20.097,9.455,30.396,13.598c3.749,1.508,7.345,1.676,10.13-1.381c3.766-4.133,4.1-9.459,3.178-14.604
			c-0.677-3.782-4.448-5.007-7.651-5.432c-6.493-0.857-12.438-3.926-19.312-3.648C96.373,99.883,91.881,97.976,87.488,95.403z
			 M134.487,124.825c6.973-0.084,17.603-5.656,21.575-10.887c1.7-2.239,1.012-3.215-1.429-3.686
			c-5.329-1.025-10.652-2.011-15.825-3.768c-2.568-0.87-4.742-0.309-5.812,2.88c-1.173,3.493-1.448,7.081-2.138,10.622
			C130.072,124.021,131.183,125.235,134.487,124.825z M130.161,87.464c-0.014,7.811,1.347,9.479,6.296,8.053
			c5.919-1.705,11.353-4.617,16.364-8.248c1.857-1.347,2.321-2.229-0.45-3.174c-6.081-2.068-12.538-3.277-17.53-7.939
			c-1.8-1.682-3.152-0.024-3.462,1.799C130.77,81.543,130.442,85.183,130.161,87.464z M101.697,42.884
			c3.137,3.981,6.021,7.732,9.008,11.401c1.722,2.114,3.276,0.951,4.426-0.642c3.492-4.833,6.385-9.99,7.802-15.852
			c0.33-1.37,1.507-2.973-0.112-4.077c-1.583-1.078-3.052-0.009-4.54,0.847C113.024,37.585,107.957,40.987,101.697,42.884z"/>
		<path d="M87.488,95.403c4.393,2.572,8.885,4.479,13.102,4.311c6.873-0.277,12.817,2.791,19.311,3.648
			c3.204,0.425,6.976,1.648,7.651,5.432c0.922,5.145,0.587,10.471-3.178,14.604c-2.786,3.057-6.382,2.889-10.13,1.381
			c-10.299-4.143-21.353-6.352-30.396-13.598c-6.175-4.947-12.743-0.888-18.897,1.144c-2.738,0.903-5.351,1.726-8.225,1.493
			c-4.407-0.354-7.085-2.703-7.508-7.118c-0.368-3.862-1.398-7.197-3.668-10.558c-2.484-3.679-2.522-8.232,0.457-12.064
			c2.062-2.649,3.035-5.241,2.021-8.659C44.68,64.15,51.98,61.827,60.15,61.555c7.298-0.243,14.367-0.099,20.357-6.352
			c3.146-3.284,7.756-6.029,12.477-7.874c4.292-1.678,7.325-0.464,10.112,2.762c1.669,1.929,2.663,4.202,3.756,6.435
			c1.879,3.84,1.068,7.117-2.982,8.545c-4.749,1.674-8.084,5.836-13.102,6.911c-1.183,0.253-2.154,1.155-1.847,2.553
			c0.244,1.102,1.293,1.48,2.314,1.539c1.66,0.093,3.495,0.527,4.964,0.002c6.941-2.487,14.022,0.048,20.998-0.862
			c3.385-0.441,6.646-0.056,8.451,3.69c2.566,5.326,3.111,10.457-0.702,15.467c-2.571,3.374-5.899,3.454-9.783,2.949
			c-7.229-0.938-14.48-1.59-21.595-3.336C91.758,93.536,89.582,93.339,87.488,95.403z"/>
		<path d="M134.487,124.825c-3.305,0.41-4.415-0.805-3.628-4.838c0.689-3.539,0.965-7.127,2.138-10.621
			c1.069-3.188,3.243-3.75,5.812-2.879c5.173,1.756,10.497,2.74,15.825,3.767c2.44,0.47,3.129,1.445,1.429,3.685
			C152.09,119.169,141.46,124.741,134.487,124.825z"/>
		<path d="M130.161,87.464c0.28-2.281,0.607-5.921,1.218-9.511c0.311-1.823,1.663-3.48,3.462-1.8
			c4.992,4.664,11.449,5.871,17.53,7.94c2.771,0.943,2.309,1.827,0.45,3.175c-5.012,3.629-10.445,6.541-16.364,8.246
			C131.508,96.94,130.148,95.272,130.161,87.464z"/>
		<path d="M101.697,42.884c6.26-1.896,11.327-5.299,16.583-8.323c1.487-0.856,2.957-1.925,4.54-0.847
			c1.62,1.104,0.442,2.707,0.112,4.077c-1.417,5.862-4.31,11.019-7.802,15.852c-1.149,1.593-2.705,2.756-4.426,0.642
			C107.719,50.617,104.834,46.866,101.697,42.884z"/>
	</g>
</g>
</svg>
