<?xml version="1.0" encoding="utf-8"?>
<!-- Generator: Adobe Illustrator 16.0.4, SVG Export Plug-In . SVG Version: 6.00 Build 0)  -->
<svg version="1.2" baseProfile="tiny" id="Layer_1" xmlns="http://www.w3.org/2000/svg" xmlns:xlink="http://www.w3.org/1999/xlink"
	 x="0px" y="0px" width="200px" height="172px" viewBox="0 0 200 172" xml:space="preserve">
<g>
	<g>
		<path fill="#FE0D01" d="M21,4c53.333,0,106.667,0,160,0c1.371,1.547,0.976,3.447,0.984,5.236c0.037,7.635-0.22,15.279,0.103,22.9
			c0.197,4.685-0.568,8.473-5.124,10.66c-2.268,2.399-5.378,3.241-8.312,4.364c-12.603,4.824-24.981,10.155-36.788,16.703
			c-3.901,2.163-7.18,2.225-10.289-1.155c-8.718-9.478-23.13-9.979-32.526-3.863c-9.43,6.14-15.38,17.277-11.493,30.898
			c0.5,1.751,1.237,3.458,1.228,5.328c-0.104,1.934-1.657,3.269-2.092,5.076c-0.842,2.07-2.384,3.574-4.005,5.028
			c-15.97,14.32-28.722,30.91-36.116,51.273c-0.687,1.892-1.697,3.61-2.847,5.271c-2.649,3.94-7.248,5.531-11.487,4.095
			c-1.488-0.505-2.081-1.511-2.169-2.965c-0.091-1.494-0.064-2.99-0.064-4.486C20,109.162,19.992,59.959,20.026,10.757
			C20.027,8.485,19.431,6.069,21,4z"/>
		<path fill-rule="evenodd" fill="#FEFEFE" d="M77.838,96.02c-6.252-15.875-4.619-25.957,7.531-36.812
			c8.285-7.401,18.416-7.89,28.719-4.076c4.195,1.552,7.618,4.232,10.463,7.631c1.051,1.254,1.853,2.043,3.647,1.008
			c15.256-8.803,31.609-15.201,47.902-21.729c1.584-1.508,3.769-1.675,5.647-2.523c0.486-0.016,0.899,0.153,1.252,0.482
			c0,5.333,0,10.667,0,16c-0.953,0.852-1.821,1.816-3.059,2.286c-5.138,1.388-10.394,2.344-15.396,4.225
			c-9.187,2.995-17.854,7.166-26.463,11.506c-2.958,1.492-4.381,3.218-4.414,6.845c-0.124,13.51-6.408,23.386-18.587,29.412
			c-8.547,2.908-16.998,3.421-25.26-0.995c-0.903-0.483-1.873-0.587-2.836-0.129c-11.146,8.617-18.208,19.934-22.163,33.316
			c-0.563,1.907-0.789,3.898-1.378,5.81c-2.026,5.666-0.072,11.651-1.421,17.365c-0.295,0.488-0.636,0.941-1.023,1.359
			c-9.333,0-18.667,0-28,0c-1.101-1.061-1.055-2.406-0.937-3.771c0.293-1.003,0.156-2.164,1.077-2.938
			C41,135.318,57.242,116.244,76.211,99.089C76.335,97.844,77.464,97.132,77.838,96.02z"/>
		<path fill-rule="evenodd" fill="#FE0000" d="M33.14,160.292c-0.091,0.879-0.182,1.758-0.273,2.636
			c-0.178,2.725-1.42,4.107-4.333,3.582c-2.951-0.531-6.109,0.999-8.935-0.879C19.375,112.55,19.561,59.472,19.504,6.394
			C19.503,5.559,19.494,4.728,20,4c0.333,0,0.667,0,1,0c0,51.122-0.033,102.244,0.099,153.366c0.006,2.544-2.058,6.562,2.435,7.465
			c4.051,0.814,8.257,0.773,8.546-5.165c0.007-0.138,0.144-0.269,0.22-0.402C32.58,159.606,32.86,159.949,33.14,160.292z"/>
		<path fill-rule="evenodd" fill="#FE6C64" d="M20,4c-0.001,54.006-0.003,108.012-0.005,162.018
			c0.659,0.324,0.661,0.651,0.005,0.982c-1.586,0.342-0.979-0.884-0.979-1.492c-0.022-53.339-0.022-106.677,0-160.016
			C19.021,4.884,18.414,3.658,20,4z"/>
		<path fill-rule="evenodd" fill="#FE7670" d="M61,167c0.043-0.364,0.086-0.729,0.13-1.094c1.592-1.624,3.663-1.385,5.638-1.386
			c36.62-0.025,73.24-0.025,109.86-0.001c1.652,0.001,3.348-0.143,4.867,0.767c0.62,0.438,0.788,1.01,0.505,1.714
			C141.667,167,101.334,167,61,167z"/>
		<path fill-rule="evenodd" fill="#FDABA6" d="M182,167c-0.018-0.357-0.034-0.714-0.052-1.071c-1.994-2.058-1.417-4.67-1.42-7.098
			c-0.04-30.527-0.03-61.056-0.018-91.583c0.002-3.488-0.172-6.96-0.59-10.422c0.819-1.047,1.993-0.773,3.079-0.826
			c0,35.667,0.016,71.333-0.062,107C182.937,164.297,184.067,166.101,182,167z"/>
		<path fill-rule="evenodd" fill="#FE0404" d="M182.065,40.038c-1.843,1.102-3.832,1.768-5.965,2.003
			c-2.509-1.559,0.289-1.671,0.648-1.737c3.799-0.711,4.355-3.214,4.304-6.579C180.9,23.818,180.999,13.908,181,4
			c0.333,0,0.667,0,1,0C182.874,16.011,182.732,28.024,182.065,40.038z"/>
		<path fill-rule="evenodd" fill="#FDABA6" d="M182.065,40.038C182.044,28.025,182.021,16.013,182,4
			c2.217,0.08,0.922,1.75,0.929,2.501C183.032,17.666,183,28.833,183,40l-0.464,0.089L182.065,40.038z"/>
		<path fill-rule="evenodd" fill="#FE756F" d="M20,167c0.01-0.328,0.008-0.655-0.005-0.982c2.763-0.008,5.555-0.269,8.279,0.051
			c2.682,0.313,3.732-1.12,4.592-3.141c0.044,1.357,0.089,2.715,0.133,4.072C28.667,167,24.333,167,20,167z"/>
		<path fill-rule="evenodd" fill="#FE0101" d="M77.838,96.02c1.359,2.03-0.611,2.297-1.626,3.069
			C74.92,97.094,77.103,96.94,77.838,96.02z"/>
		<path fill-rule="evenodd" fill="#FE0D01" d="M62.11,147.014c2.814-16.422,11.667-29.252,23.855-40.097
			c4.699,1.505,8.907,4.343,14.003,4.817c5.217,0.486,10.133-0.071,14.637-2.929c12.271-6.781,18.54-16.83,16.708-31.131
			c-0.261-2.039,0.846-2.678,2.156-3.389c9.786-5.312,19.715-10.299,30.556-13.164c4.265,0.133,8.003-2.107,12.132-2.669
			c4.844-0.657,5.328-0.438,5.331,4.284c0.021,32.785-0.038,65.57,0.083,98.354c0.014,3.468-0.943,4.491-4.449,4.48
			c-36.778-0.119-73.558-0.126-110.336,0.001c-3.978,0.014-5.339-1.479-5.318-5.207C61.492,155.901,62.539,151.493,62.11,147.014z"
			/>
		<path fill-rule="evenodd" fill="#FE0101" d="M62.11,147.014c1.582,3.207,0.861,6.429,0.205,9.71
			c-1.272,6.367,0.285,8.271,6.59,8.272c35.315,0.007,70.63-0.078,105.944,0.1c4.719,0.024,6.289-1.183,6.256-6.103
			c-0.21-31.315-0.102-62.634-0.11-93.95c-0.001-6.441-0.464-6.551-7.005-5.355c-3.276,0.599-6.301,3.523-9.965,1.435
			c5.098-2.179,10.522-3.142,15.896-4.296c3.312,0.363,2.022,2.957,2.026,4.622c0.073,30.995,0.057,61.989,0.052,92.984
			c0,3.832-0.033,7.664-0.051,11.496c-40.272-0.007-80.546-0.015-120.818-0.022C60.588,159.564,60.42,153.241,62.11,147.014z"/>
		<path fill-rule="evenodd" fill="#FD0806" d="M114.604,108.806c-1.595,2.383-6.891,4.567-11.769,4.08
			c-6.039-0.604-12.015-1.82-16.871-5.969c0.447-0.986,1.125-1.022,1.958-0.49C96.403,111.849,105.366,111.873,114.604,108.806z"/>
	</g>
</g>
</svg>
